<svg width="90" height="90" viewBox="0 0 90 90" fill="none" xmlns="http://www.w3.org/2000/svg">
<g clip-path="url(#clip0_1_5)">
<path d="M42 90V0C42 -1.65685 43.3431 -3 45 -3C46.6569 -3 48 -1.65685 48 0V90C48 91.6569 46.6569 93 45 93C43.3431 93 42 91.6569 42 90Z" fill="#444444"/>
<path d="M48 -1.19328e-07C48 11.1391 52.4252 21.8217 60.3018 29.6982C68.1783 37.5748 78.8609 42 90 42C91.6569 42 93 43.3431 93 45C93 46.6569 91.6569 48 90 48C77.2696 48 65.0603 42.9432 56.0586 33.9414C47.0568 24.9397 42 12.7304 42 -6.43864e-07C42 -1.65685 43.3432 -3 45 -3C46.6569 -3 48 -1.65685 48 -1.19328e-07Z" fill="#444444"/>
</g>
<defs>
<clipPath id="clip0_1_5">
<rect width="90" height="90" fill="white"/>
</clipPath>
</defs>
</svg>
