<svg width="90" height="90" viewBox="0 0 90 90" fill="none" xmlns="http://www.w3.org/2000/svg">
<g clip-path="url(#clip0_1_10)">
<path d="M48 0C48 11.1391 52.4252 21.8217 60.3018 29.6982C68.1783 37.5748 78.8609 42 90 42C91.6569 42 93 43.3431 93 45C93 46.6569 91.6569 48 90 48C77.2696 48 65.0603 42.9432 56.0586 33.9414C47.0568 24.9397 42 12.7304 42 0C42 -1.65685 43.3431 -3 45 -3C46.6569 -3 48 -1.65685 48 0Z" fill="#444444"/>
<path d="M48 90C48 91.6569 46.6569 93 45 93C43.3431 93 42 91.6569 42 90C42 77.2696 47.0568 65.0603 56.0586 56.0586C65.0603 47.0568 77.2696 42 90 42C91.6569 42 93 43.3431 93 45C93 46.6569 91.6569 48 90 48C78.8609 48 68.1783 52.4252 60.3018 60.3018C52.4252 68.1783 48 78.8609 48 90Z" fill="#444444"/>
<path d="M42 90V0C42 -1.65685 43.3431 -3 45 -3C46.6569 -3 48 -1.65685 48 0V90C48 91.6569 46.6569 93 45 93C43.3431 93 42 91.6569 42 90Z" fill="#444444"/>
</g>
<defs>
<clipPath id="clip0_1_10">
<rect width="90" height="90" fill="white"/>
</clipPath>
</defs>
</svg>
